<svg version="1.1" id="Layer_1" xmlns="http://www.w3.org/2000/svg" xmlns:xlink="http://www.w3.org/1999/xlink" x="0px" y="0px"
	 width="100%" viewBox="0 0 605 247" enable-background="new 0 0 605 247" xml:space="preserve">
<path fill="#FFFFFF" opacity="1.000000" stroke="none" 
	d="
M423.000000,248.000000 
	C282.000031,248.000000 141.500031,248.000000 1.000038,248.000000 
	C1.000025,165.666687 1.000025,83.333389 1.000013,1.000060 
	C202.666626,1.000040 404.333252,1.000040 605.999878,1.000020 
	C605.999939,83.333275 605.999939,165.666550 606.000000,247.999908 
	C545.166687,248.000000 484.333344,248.000000 423.000000,248.000000 
M62.685089,174.935287 
	C64.784218,174.232819 66.883354,173.530334 69.732834,172.810974 
	C72.164574,172.169571 74.596321,171.528183 77.775696,171.027176 
	C82.043556,171.261459 81.610893,167.351532 83.525955,164.613220 
	C84.378075,162.813812 85.230202,161.014389 86.648102,158.764832 
	C88.855713,155.307663 89.824615,150.893982 94.735649,148.925888 
	C95.478012,148.238785 96.220375,147.551682 97.577820,146.699860 
	C98.691498,145.732758 99.805176,144.765656 101.481911,143.626892 
	C102.360970,142.850464 103.240021,142.074020 104.717590,141.061920 
	C105.825089,140.080139 106.932587,139.098358 108.670944,137.922241 
	C110.128433,136.623199 111.585922,135.324158 113.650322,133.827698 
	C114.582550,132.950592 115.514771,132.073486 117.018669,131.016663 
	C118.047707,130.102448 119.076736,129.188248 120.738998,128.028183 
	C123.194115,125.820671 125.649239,123.613152 128.654861,120.970924 
	C130.790131,118.988571 132.925415,117.006210 135.632217,114.769829 
	C136.781265,113.573082 137.930328,112.376335 139.653091,110.894676 
	C140.794510,109.657677 141.935913,108.420677 143.663681,106.893936 
	C145.170975,105.139465 146.678284,103.384987 148.730408,101.189819 
	C150.198349,99.564957 151.666290,97.940102 153.718063,95.969261 
	C155.157776,93.984619 156.597488,91.999977 158.581879,89.632378 
	C160.689606,86.141983 162.797318,82.651588 164.963898,78.509560 
	C164.973083,78.074326 164.982269,77.639084 165.761597,77.174561 
	C167.026627,75.674957 168.291656,74.175354 169.404343,72.856354 
	C168.527756,71.361275 167.967041,69.619202 166.786865,68.581902 
	C165.143951,67.137917 163.066208,65.417763 161.119431,65.347702 
	C159.701340,65.296669 158.194168,67.720947 156.356506,69.339134 
	C156.132065,69.579376 155.999893,69.862671 155.260147,69.980118 
	C154.178467,70.424423 153.096771,70.868736 151.399033,71.504723 
	C149.619553,72.716667 147.840088,73.928619 145.421432,75.272247 
	C143.909760,76.497482 142.398102,77.722717 140.258453,79.145271 
	C138.959549,80.333305 137.660629,81.521339 135.783051,82.906281 
	C134.447922,84.147141 133.112778,85.388000 131.169403,86.889427 
	C129.780380,88.261948 128.391342,89.634460 126.438904,91.351936 
	C123.974808,93.957680 121.510719,96.563423 118.456139,99.427322 
	C116.863113,101.212387 115.270096,102.997452 113.169441,105.081604 
	C112.361519,106.154243 111.553589,107.226875 110.087112,108.490379 
	C109.063255,109.678528 108.039398,110.866676 106.434593,112.327225 
	C105.250656,113.781677 104.066719,115.236130 102.304321,117.022308 
	C100.942902,118.708664 99.581474,120.395020 97.685318,122.451530 
	C96.505188,123.980835 95.325058,125.510132 93.601067,127.375244 
	C92.727715,128.568375 91.854355,129.761505 90.400925,131.287643 
	C89.257423,132.674149 87.897865,133.936615 87.015831,135.473221 
	C85.232414,138.580124 83.708130,141.835785 81.438080,144.894394 
	C79.940994,145.225067 78.443916,145.555740 76.267036,146.054520 
	C73.508171,147.693024 70.749306,149.331528 67.245102,151.008133 
	C60.776478,152.450821 62.700390,157.843536 61.650387,162.591248 
	C59.500763,167.445236 57.351139,172.299225 54.940971,177.741531 
	C57.914444,176.466782 59.926094,175.604370 62.685089,174.935287 
M87.791969,189.932755 
	C91.934227,188.867157 96.252602,188.232208 100.174736,186.628326 
	C105.218559,184.565765 106.410042,181.196762 105.579277,175.720215 
	C105.245735,173.521454 105.681992,171.205917 106.301949,168.453598 
	C109.129997,166.890518 111.958046,165.327438 114.909294,163.696259 
	C111.569572,161.337784 106.446480,163.256638 102.283951,168.436905 
	C102.132713,171.138062 101.608788,173.883865 101.925735,176.528915 
	C102.311127,179.745163 101.606827,182.151703 98.548012,183.298889 
	C94.763420,184.718307 90.860153,185.821304 86.113953,186.993256 
	C79.274788,186.362793 72.435631,185.732330 65.596466,185.101868 
	C65.520386,185.715836 65.444313,186.329819 65.368240,186.943802 
	C72.561935,187.903915 79.755638,188.864044 87.791969,189.932755 
M226.644028,152.424957 
	C228.427475,152.561768 230.210907,152.698578 232.759842,152.833633 
	C236.168457,151.486420 239.577087,150.139206 243.629654,148.649353 
	C253.965927,139.498871 253.769806,127.113731 242.703705,118.111969 
	C237.795227,115.523689 232.886734,112.935410 227.453125,109.867195 
	C226.443283,109.034676 224.910812,108.391457 224.527115,107.332146 
	C223.587677,104.738647 222.073868,101.533524 222.894211,99.373009 
	C223.592270,97.534500 227.157669,96.639465 229.593567,95.680061 
	C230.521515,95.314568 231.836838,95.932632 233.308823,96.676125 
	C234.923065,98.517670 236.866409,100.167755 238.075043,102.245270 
	C239.926163,105.427139 242.305298,106.500725 246.148392,105.553329 
	C245.889664,100.738403 245.636551,96.027817 245.368423,91.037758 
	C241.263565,91.396339 237.625504,91.714142 233.333313,91.656715 
	C231.059341,91.193771 228.795456,90.397758 226.509567,90.328522 
	C218.739746,90.093155 211.856949,92.279091 207.905899,99.508705 
	C204.494553,105.750824 204.707748,112.767517 209.574188,117.656433 
	C214.320038,122.424187 220.825577,125.440323 226.970306,129.784775 
	C235.301071,136.026962 236.157837,139.493179 230.267258,146.191727 
	C228.844177,146.516373 227.421082,146.841034 225.180511,146.999023 
	C219.716797,147.443634 215.856735,144.603439 213.900009,140.042007 
	C212.017105,135.652664 209.280869,135.063644 204.837845,136.058167 
	C205.235428,141.145370 205.626968,146.155319 206.032059,151.338501 
	C207.717529,151.338501 209.299667,151.828705 209.941467,151.259186 
	C214.203568,147.477219 218.071991,149.913467 222.115341,151.580780 
	C223.269714,152.056793 224.697662,151.869324 226.644028,152.424957 
M516.086182,112.276848 
	C516.375000,111.501259 516.437134,110.366745 516.993774,110.015244 
	C518.908813,108.805977 520.962219,107.230087 523.034180,107.118668 
	C523.976868,107.067978 525.804565,110.039764 525.999512,111.778633 
	C526.996277,120.668327 526.852783,120.672089 518.261841,122.847420 
	C516.824341,123.211418 515.426025,123.730438 513.285645,124.169510 
	C510.173431,125.674675 506.817963,126.825417 504.000000,128.759354 
	C498.271545,132.690735 496.416321,139.057098 498.770294,144.922211 
	C500.990875,150.454971 506.793701,153.224258 514.667358,152.405304 
	C518.397644,150.537949 522.127930,148.670609 525.337402,147.064011 
	C526.086121,148.402634 526.953674,149.953720 528.223328,152.030838 
	C529.485779,152.086334 530.892700,152.534546 531.986572,152.131989 
	C537.967834,149.930679 543.872192,147.520401 549.871460,145.154938 
	C549.871460,143.703827 549.871460,142.239548 549.871460,140.260727 
	C543.956360,141.412872 543.552673,137.829819 543.702209,133.453659 
	C543.889465,127.971916 543.728516,122.478821 543.749939,116.990753 
	C543.785217,107.974228 541.026062,103.652061 528.185181,102.628899 
	C523.455811,103.083153 518.726440,103.537399 513.228149,103.950188 
	C509.558441,106.051353 505.275177,107.559731 502.453552,110.480217 
	C500.810486,112.180832 500.259796,116.966896 501.505310,118.858002 
	C502.753784,120.753685 506.926239,121.666504 509.673981,121.419182 
	C514.221741,121.009850 515.372192,116.990562 516.086182,112.276848 
M337.142853,108.152222 
	C335.744751,109.500481 334.346649,110.848740 333.221100,111.934174 
	C333.221100,104.549042 333.273621,97.630852 333.205475,90.713860 
	C333.144348,84.506424 331.602051,83.744965 325.275635,87.083031 
	C321.170471,88.816116 316.969391,90.360657 313.008148,92.376541 
	C311.458221,93.165306 310.446686,95.012062 309.189941,96.376953 
	C309.982086,96.458672 310.774200,96.540390 311.566345,96.622108 
	C313.083893,98.776077 315.840973,100.888756 315.914337,103.090836 
	C316.335358,115.728561 316.237946,128.389954 315.974762,141.036209 
	C315.940735,142.672806 314.212646,145.288864 312.784241,145.680008 
	C309.329071,146.626114 309.935822,148.500793 310.280518,150.952332 
	C316.075256,150.952332 321.537018,150.952332 327.918579,151.101791 
	C331.812866,151.101791 335.707184,151.101791 339.601471,151.101791 
	C339.888916,150.588593 340.176392,150.075394 340.463837,149.562195 
	C339.407745,148.398285 338.304932,147.272842 337.306763,146.061188 
	C335.907043,144.362076 333.626831,142.707077 333.416138,140.841949 
	C332.862762,135.944290 333.396545,130.935608 333.178009,125.985237 
	C332.928619,120.335091 335.168854,115.869591 339.674255,111.769539 
	C344.846741,109.053925 346.750305,109.642769 347.181122,115.323669 
	C347.831390,123.898987 347.852417,132.545425 347.598083,141.145584 
	C347.549103,142.801926 344.974518,144.361588 343.616394,146.008240 
	C342.557709,147.291916 341.578827,148.641403 339.853027,150.887604 
	C345.421387,150.887604 349.207855,150.887604 353.922699,151.025620 
	C359.521545,151.025620 365.120392,151.025620 370.719238,151.025620 
	C371.021332,150.618027 371.323425,150.210434 371.625519,149.802856 
	C370.675720,148.550049 369.956390,146.576263 368.731293,146.184601 
	C365.525665,145.159760 364.843414,143.190765 364.886292,140.174759 
	C364.994781,132.539795 365.079803,124.892799 364.772583,117.266808 
	C364.448273,109.216347 361.069183,105.093231 353.285278,102.832565 
	C347.186188,101.650070 341.866089,102.898994 337.142853,108.152222 
M388.932068,151.013260 
	C393.855988,151.013260 398.779938,151.013260 403.703857,151.013260 
	C404.037842,150.578064 404.371796,150.142853 404.705750,149.707657 
	C403.627411,148.451233 402.781586,146.576981 401.422852,146.065613 
	C398.494843,144.963699 397.885529,143.059616 397.923401,140.298126 
	C398.052948,130.855820 398.160645,121.410393 398.042664,111.969078 
	C398.003143,108.806496 397.262085,105.652679 396.841705,102.494873 
	C393.556366,103.653923 390.271057,104.812973 386.214691,105.997810 
	C383.233765,106.961693 380.202667,107.799889 377.299835,108.959343 
	C376.315948,109.352325 375.114777,110.494728 375.009613,111.409256 
	C374.915649,112.226822 376.037231,113.769264 376.895172,114.006767 
	C380.086975,114.890366 380.973938,117.006569 380.957428,119.969345 
	C380.918701,126.931709 381.151001,133.904999 380.795532,140.849380 
	C380.709534,142.529495 379.087189,145.054794 377.616669,145.552444 
	C374.311798,146.670868 374.734100,148.416168 375.363495,150.887436 
	C379.771667,150.887436 383.888245,150.887436 388.932068,151.013260 
M471.996490,128.093201 
	C469.678162,123.569061 467.410217,119.018105 465.023224,114.530479 
	C463.508942,111.683617 463.846039,109.757332 466.916351,108.102531 
	C468.149414,107.437950 468.668549,105.448746 470.174011,102.976181 
	C464.585632,103.326607 460.825073,103.562424 456.173889,103.467072 
	C451.241211,103.467072 446.308563,103.467072 440.318176,103.467072 
	C440.978668,105.259644 441.207855,106.941803 442.108612,108.103043 
	C443.915405,110.432404 446.538452,112.209991 448.016510,114.695808 
	C450.957275,119.641533 453.351440,124.912277 456.063477,130.762177 
	C458.858002,136.763443 461.507172,142.838318 464.496490,148.740921 
	C466.601166,152.896774 466.377869,156.555405 463.717987,160.350571 
	C461.311981,163.783478 459.215088,167.433029 456.592438,171.606812 
	C460.712646,171.867905 464.259491,173.802704 466.125183,169.554138 
	C468.313690,164.570511 470.140472,159.428055 472.678772,153.871033 
	C477.985962,141.002701 483.422180,128.185226 488.524750,115.236267 
	C490.135071,111.149689 492.162750,108.225815 496.876465,108.040443 
	C497.133423,108.030342 497.376617,107.670898 497.672424,107.437645 
	C497.672424,106.180817 497.672424,104.906837 497.672424,103.453751 
	C490.524445,103.453751 483.598022,103.453751 476.746124,103.453751 
	C475.230133,106.857193 476.553406,107.926376 479.669525,108.665199 
	C481.279297,109.046883 483.914459,111.597656 483.661163,112.333122 
	C481.281281,119.243050 478.376923,125.972351 475.365601,133.390518 
	C473.795074,131.194778 472.936096,129.993835 471.996490,128.093201 
M283.211334,107.925262 
	C283.133636,112.369423 283.055939,116.813576 282.220581,121.293472 
	C275.476166,123.808456 268.227417,125.462509 262.109161,129.046463 
	C253.590729,134.036362 253.784988,145.636871 261.656219,150.487656 
	C269.606140,155.386902 279.664093,152.491470 284.498016,144.961884 
	C284.584259,153.026855 286.347900,154.127289 293.641754,150.941925 
	C298.302979,148.906296 303.069763,147.112396 307.873657,145.176071 
	C307.873657,143.751923 307.873657,142.296829 307.873657,140.503296 
	C302.362305,140.951965 301.539856,137.748566 301.789581,133.291504 
	C302.058411,128.493988 301.851562,123.669762 301.850067,118.857193 
	C301.846161,106.238716 296.856079,101.757240 283.201538,102.480270 
	C280.723785,102.647957 278.199524,102.571297 275.777618,103.032349 
	C270.094818,104.114136 264.350128,105.289734 260.464996,110.192383 
	C258.091034,113.188087 256.927094,117.212891 260.023956,119.560043 
	C262.264954,121.258514 266.698822,121.614960 269.433167,120.608849 
	C271.531677,119.836716 273.071136,116.173866 273.867462,113.501114 
	C275.942932,106.535217 275.826019,106.398849 283.211334,107.925262 
M433.282440,109.022751 
	C435.572449,108.886086 438.432098,109.283722 438.351105,105.825691 
	C438.264374,102.120689 435.185608,103.339149 433.060486,103.110336 
	C431.799255,102.974541 430.536163,102.856293 428.856445,102.688431 
	C428.856445,98.453552 428.856445,94.520424 428.856445,90.659584 
	C423.704407,89.320351 420.267120,89.703102 419.126373,95.644615 
	C418.206543,100.435448 414.336334,102.484032 409.645111,103.204239 
	C408.659882,103.355484 407.062439,104.687492 407.124634,105.345055 
	C407.232056,106.480072 408.297424,107.634834 409.202240,108.540085 
	C409.697479,109.035538 410.687103,109.036888 411.872101,109.383339 
	C411.872101,118.273941 411.971375,127.083633 411.850098,135.890289 
	C411.639343,151.189026 425.228516,154.303375 435.270264,150.657654 
	C438.440582,149.506638 439.817505,147.606415 438.183167,144.270050 
	C430.693054,146.538956 428.987701,145.332458 428.962250,137.785126 
	C428.934143,129.455963 429.033997,121.125481 428.910736,112.798058 
	C428.872040,110.183754 429.341949,108.535629 433.282440,109.022751 
M386.175842,99.682976 
	C392.784821,100.216728 396.446869,97.808273 397.064667,92.521584 
	C397.692902,87.145737 394.954498,83.321846 389.765442,82.626228 
	C385.471313,82.050583 382.413391,83.989838 380.669373,87.874069 
	C378.698212,92.264236 380.262207,95.907150 386.175842,99.682976 
z"/>
<path fill="#C58D62" opacity="1.000000" stroke="none" 
	d="
M432.842407,109.022766 
	C429.341949,108.535629 428.872040,110.183754 428.910736,112.798058 
	C429.033997,121.125481 428.934143,129.455963 428.962250,137.785126 
	C428.987701,145.332458 430.693054,146.538956 438.183167,144.270050 
	C439.817505,147.606415 438.440582,149.506638 435.270264,150.657654 
	C425.228516,154.303375 411.639343,151.189026 411.850098,135.890289 
	C411.971375,127.083633 411.872101,118.273941 411.872101,109.383339 
	C410.687103,109.036888 409.697479,109.035538 409.202240,108.540085 
	C408.297424,107.634834 407.232056,106.480072 407.124634,105.345055 
	C407.062439,104.687492 408.659882,103.355484 409.645111,103.204239 
	C414.336334,102.484032 418.206543,100.435448 419.126373,95.644615 
	C420.267120,89.703102 423.704407,89.320351 428.856445,90.659584 
	C428.856445,94.520424 428.856445,98.453552 428.856445,102.688431 
	C430.536163,102.856293 431.799255,102.974541 433.060486,103.110336 
	C435.185608,103.339149 438.264374,102.120689 438.351105,105.825691 
	C438.432098,109.283722 435.572449,108.886086 432.842407,109.022766 
z"/>
<path fill="#B27C54" opacity="1.000000" stroke="none" 
	d="
M282.978271,121.257736 
	C283.055939,116.813576 283.133636,112.369423 283.117279,107.208870 
	C283.342896,105.264633 283.662598,104.036789 283.982300,102.808952 
	C296.856079,101.757240 301.846161,106.238716 301.850067,118.857193 
	C301.851562,123.669762 302.058411,128.493988 301.789581,133.291504 
	C301.539856,137.748566 302.362305,140.951965 307.873657,140.503296 
	C307.873657,142.296829 307.873657,143.751923 307.873657,145.176071 
	C303.069763,147.112396 298.302979,148.906296 293.641754,150.941925 
	C286.347900,154.127289 284.584259,153.026855 284.122742,144.299423 
	C283.386353,142.839218 283.025238,142.041489 282.747040,140.901413 
	C283.469482,136.839767 284.330414,133.138458 284.635010,129.391907 
	C284.750183,127.975174 283.580719,126.453987 282.998718,124.608002 
	C282.993164,123.242973 282.985718,122.250351 282.978271,121.257736 
z"/>
<path fill="#BF885E" opacity="1.000000" stroke="none" 
	d="
M326.998779,150.952332 
	C321.537018,150.952332 316.075256,150.952332 310.280518,150.952332 
	C309.935822,148.500793 309.329071,146.626114 312.784241,145.680008 
	C314.212646,145.288864 315.940735,142.672806 315.974762,141.036209 
	C316.237946,128.389954 316.335358,115.728561 315.914337,103.090836 
	C315.840973,100.888756 313.083893,98.776077 311.566345,96.622108 
	C310.774200,96.540390 309.982086,96.458672 309.189941,96.376953 
	C310.446686,95.012062 311.458221,93.165306 313.008148,92.376541 
	C316.969391,90.360657 321.170471,88.816116 325.806152,87.427422 
	C326.557800,89.726807 326.966095,91.681335 326.970978,93.636871 
	C327.018738,112.741928 326.999176,131.847153 326.998779,150.952332 
z"/>
<path fill="#8C5A35" opacity="1.000000" stroke="none" 
	d="
M529.047302,102.944481 
	C541.026062,103.652061 543.785217,107.974228 543.749939,116.990753 
	C543.728516,122.478821 543.889465,127.971916 543.702209,133.453659 
	C543.552673,137.829819 543.956360,141.412872 549.871460,140.260727 
	C549.871460,142.239548 549.871460,143.703827 549.871460,145.154938 
	C543.872192,147.520401 537.967834,149.930679 531.986572,152.131989 
	C530.892700,152.534546 529.485779,152.086334 528.102600,151.316818 
	C528.320435,148.328964 528.934387,146.057312 528.952393,143.780945 
	C529.060242,130.169388 529.030762,116.556755 529.047302,102.944481 
z"/>
<path fill="#AF7950" opacity="1.000000" stroke="none" 
	d="
M457.064514,103.798233 
	C460.825073,103.562424 464.585632,103.326607 470.174011,102.976181 
	C468.668549,105.448746 468.149414,107.437950 466.916351,108.102531 
	C463.846039,109.757332 463.508942,111.683617 465.023224,114.530479 
	C467.410217,119.018105 469.678162,123.569061 471.970581,128.873627 
	C472.004486,137.887543 472.064331,146.121002 472.124176,154.354492 
	C470.140472,159.428055 468.313690,164.570511 466.125183,169.554138 
	C464.259491,173.802704 460.712646,171.867905 456.592438,171.606812 
	C459.215088,167.433029 461.311981,163.783478 463.717987,160.350571 
	C466.377869,156.555405 466.601166,152.896774 464.496490,148.740921 
	C461.507172,142.838318 458.858002,136.763443 456.189301,130.019714 
	C456.564911,120.784241 456.814728,112.291237 457.064514,103.798233 
z"/>
<path fill="#8C5934" opacity="1.000000" stroke="none" 
	d="
M232.975616,96.102448 
	C231.836838,95.932632 230.521515,95.314568 229.593567,95.680061 
	C227.157669,96.639465 223.592270,97.534500 222.894211,99.373009 
	C222.073868,101.533524 223.587677,104.738647 224.527115,107.332146 
	C224.910812,108.391457 226.443283,109.034676 227.720367,110.551620 
	C227.992157,114.648804 228.179947,118.074402 227.941849,121.470146 
	C227.759232,124.074783 227.039444,126.641747 226.558563,129.225464 
	C220.825577,125.440323 214.320038,122.424187 209.574188,117.656433 
	C204.707748,112.767517 204.494553,105.750824 207.905899,99.508705 
	C211.856949,92.279091 218.739746,90.093155 226.509567,90.328522 
	C228.795456,90.397758 231.059341,91.193771 233.631927,92.195679 
	C233.612228,93.857239 233.293915,94.979843 232.975616,96.102448 
z"/>
<path fill="#D1986C" opacity="1.000000" stroke="none" 
	d="
M353.987518,103.159035 
	C361.069183,105.093231 364.448273,109.216347 364.772583,117.266808 
	C365.079803,124.892799 364.994781,132.539795 364.886292,140.174759 
	C364.843414,143.190765 365.525665,145.159760 368.731293,146.184601 
	C369.956390,146.576263 370.675720,148.550049 371.625519,149.802856 
	C371.323425,150.210434 371.021332,150.618027 370.719238,151.025620 
	C365.120392,151.025620 359.521545,151.025620 353.460571,150.496582 
	C352.998932,137.479843 352.935394,124.991585 353.045135,112.504852 
	C353.072510,109.387054 353.658356,106.274178 353.987518,103.159035 
z"/>
<path fill="#A56F48" opacity="1.000000" stroke="none" 
	d="
M282.599426,121.275604 
	C282.985718,122.250351 282.993164,123.242973 282.704834,124.823936 
	C276.407379,127.176888 272.735718,131.613068 273.121094,137.834320 
	C273.270355,140.243988 275.207642,142.542877 276.330383,144.892242 
	C278.441620,143.676071 280.552887,142.459900 282.664124,141.243744 
	C283.025238,142.041489 283.386353,142.839218 283.843353,143.854935 
	C279.664093,152.491470 269.606140,155.386902 261.656219,150.487656 
	C253.784988,145.636871 253.590729,134.036362 262.109161,129.046463 
	C268.227417,125.462509 275.476166,123.808456 282.599426,121.275604 
z"/>
<path fill="#D39A6E" opacity="1.000000" stroke="none" 
	d="
M386.985718,105.972015 
	C390.271057,104.812973 393.556366,103.653923 396.841705,102.494865 
	C397.262085,105.652679 398.003143,108.806496 398.042664,111.969078 
	C398.160645,121.410393 398.052948,130.855820 397.923401,140.298126 
	C397.885529,143.059616 398.494843,144.963699 401.422852,146.065613 
	C402.781586,146.576981 403.627411,148.451233 404.705750,149.707657 
	C404.371796,150.142853 404.037842,150.578064 403.703857,151.013260 
	C398.779938,151.013260 393.855988,151.013260 388.466675,150.490570 
	C388.000854,137.390961 388.046539,124.813728 387.954529,112.237503 
	C387.939270,110.146751 387.323822,108.060394 386.985718,105.972015 
z"/>
<path fill="#925F3A" opacity="1.000000" stroke="none" 
	d="
M226.764435,129.505127 
	C227.039444,126.641747 227.759232,124.074783 227.941849,121.470146 
	C228.179947,118.074402 227.992157,114.648804 227.982941,110.791580 
	C232.886734,112.935410 237.795227,115.523689 242.885162,118.847694 
	C243.039627,129.319611 243.012665,139.055801 242.985703,148.791992 
	C239.577087,150.139206 236.168457,151.486420 232.378876,152.433929 
	C231.648911,149.985794 231.299911,147.937378 230.950928,145.888962 
	C236.157837,139.493179 235.301071,136.026962 226.764435,129.505127 
z"/>
<path fill="#C38B60" opacity="1.000000" stroke="none" 
	d="
M327.458679,151.027069 
	C326.999176,131.847153 327.018738,112.741928 326.970978,93.636871 
	C326.966095,91.681335 326.557800,89.726807 326.169434,87.388992 
	C331.602051,83.744965 333.144348,84.506424 333.205475,90.713860 
	C333.273621,97.630852 333.221100,104.549042 333.221100,111.934174 
	C334.346649,110.848740 335.744751,109.500481 337.744446,108.212982 
	C338.562714,109.512596 338.779327,110.751450 338.995972,111.990295 
	C335.168854,115.869591 332.928619,120.335091 333.178009,125.985237 
	C333.396545,130.935608 332.862762,135.944290 333.416138,140.841949 
	C333.626831,142.707077 335.907043,144.362076 337.306763,146.061188 
	C338.304932,147.272842 339.407745,148.398285 340.463837,149.562195 
	C340.176392,150.075394 339.888916,150.588593 339.601471,151.101791 
	C335.707184,151.101791 331.812866,151.101791 327.458679,151.027069 
z"/>
<path fill="#AA7751" opacity="1.000000" stroke="none" 
	d="
M472.401489,154.112762 
	C472.064331,146.121002 472.004486,137.887543 472.010895,129.223480 
	C472.936096,129.993835 473.795074,131.194778 475.365601,133.390518 
	C478.376923,125.972351 481.281281,119.243050 483.661163,112.333122 
	C483.914459,111.597656 481.279297,109.046883 479.669525,108.665199 
	C476.553406,107.926376 475.230133,106.857193 476.746124,103.453751 
	C483.598022,103.453751 490.524445,103.453751 497.672424,103.453751 
	C497.672424,104.906837 497.672424,106.180817 497.672424,107.437645 
	C497.376617,107.670898 497.133423,108.030342 496.876465,108.040443 
	C492.162750,108.225815 490.135071,111.149689 488.524750,115.236267 
	C483.422180,128.185226 477.985962,141.002701 472.401489,154.112762 
z"/>
<path fill="#D89E71" opacity="1.000000" stroke="none" 
	d="
M386.600220,105.984909 
	C387.323822,108.060394 387.939270,110.146751 387.954529,112.237503 
	C388.046539,124.813728 388.000854,137.390961 388.003052,150.427643 
	C383.888245,150.887436 379.771667,150.887436 375.363495,150.887436 
	C374.734100,148.416168 374.311798,146.670868 377.616669,145.552444 
	C379.087189,145.054794 380.709534,142.529495 380.795532,140.849380 
	C381.151001,133.904999 380.918701,126.931709 380.957428,119.969345 
	C380.973938,117.006569 380.086975,114.890366 376.895172,114.006767 
	C376.037231,113.769264 374.915649,112.226822 375.009613,111.409256 
	C375.114777,110.494728 376.315948,109.352325 377.299835,108.959343 
	C380.202667,107.799889 383.233765,106.961693 386.600220,105.984909 
z"/>
<path fill="#9B6640" opacity="1.000000" stroke="none" 
	d="
M513.998962,152.189850 
	C506.793701,153.224258 500.990875,150.454971 498.770294,144.922211 
	C496.416321,139.057098 498.271545,132.690735 504.000000,128.759354 
	C506.817963,126.825417 510.173431,125.674675 513.645020,124.612236 
	C514.440613,127.915909 514.876953,130.776855 515.294556,134.036377 
	C515.573669,137.602798 515.871521,140.770660 515.781860,144.021408 
	C514.929260,146.799484 514.464111,149.494659 513.998962,152.189850 
z"/>
<path fill="#925F3A" opacity="1.000000" stroke="none" 
	d="
M515.313293,133.637802 
	C514.876953,130.776855 514.440613,127.915909 514.006958,124.616394 
	C515.426025,123.730438 516.824341,123.211418 518.261841,122.847420 
	C526.852783,120.672089 526.996277,120.668327 525.999512,111.778633 
	C525.804565,110.039764 523.976868,107.067978 523.034180,107.118668 
	C520.962219,107.230087 518.908813,108.805977 516.993774,110.015244 
	C516.437134,110.366745 516.375000,111.501259 515.583984,112.533653 
	C514.720154,109.857521 514.358582,106.924583 513.997070,103.991638 
	C518.726440,103.537399 523.455811,103.083153 528.616211,102.786690 
	C529.030762,116.556755 529.060242,130.169388 528.952393,143.780945 
	C528.934387,146.057312 528.320435,148.328964 527.901550,151.053802 
	C526.953674,149.953720 526.086121,148.402634 525.337402,147.064011 
	C522.127930,148.670609 518.397644,150.537949 514.333130,152.297577 
	C514.464111,149.494659 514.929260,146.799484 516.125977,144.132599 
	C520.646118,146.191193 523.352539,144.149216 524.241821,140.988434 
	C525.659546,135.949509 526.057739,130.623749 526.983459,124.814453 
	C518.824280,127.131317 518.824280,127.131317 515.313293,133.637802 
z"/>
<path fill="#CC9468" opacity="1.000000" stroke="none" 
	d="
M339.335114,111.879913 
	C338.779327,110.751450 338.562714,109.512596 338.034088,108.046295 
	C341.866089,102.898994 347.186188,101.650070 353.636414,102.995804 
	C353.658356,106.274178 353.072510,109.387054 353.045135,112.504852 
	C352.935394,124.991585 352.998932,137.479843 352.996368,150.427582 
	C349.207855,150.887604 345.421387,150.887604 339.853027,150.887604 
	C341.578827,148.641403 342.557709,147.291916 343.616394,146.008240 
	C344.974518,144.361588 347.549103,142.801926 347.598083,141.145584 
	C347.852417,132.545425 347.831390,123.898987 347.181122,115.323669 
	C346.750305,109.642769 344.846741,109.053925 339.335114,111.879913 
z"/>
<path fill="#D89E71" opacity="1.000000" stroke="none" 
	d="
M128.104355,121.405624 
	C125.649239,123.613152 123.194115,125.820671 120.349960,127.713959 
	C119.656158,117.989548 119.351395,108.579361 119.046631,99.169174 
	C121.510719,96.563423 123.974808,93.957680 126.734543,91.601768 
	C127.352753,94.775688 127.885399,97.694717 127.955833,100.624863 
	C128.122269,107.548973 128.068863,114.478371 128.104355,121.405624 
z"/>
<path fill="#A57149" opacity="1.000000" stroke="none" 
	d="
M283.591919,102.644608 
	C283.662598,104.036789 283.342896,105.264633 282.988647,106.818390 
	C275.826019,106.398849 275.942932,106.535217 273.867462,113.501114 
	C273.071136,116.173866 271.531677,119.836716 269.433167,120.608849 
	C266.698822,121.614960 262.264954,121.258514 260.023956,119.560043 
	C256.927094,117.212891 258.091034,113.188087 260.464996,110.192383 
	C264.350128,105.289734 270.094818,104.114136 275.777618,103.032349 
	C278.199524,102.571297 280.723785,102.647957 283.591919,102.644608 
z"/>
<path fill="#D89E71" opacity="1.000000" stroke="none" 
	d="
M385.809448,99.542175 
	C380.262207,95.907150 378.698212,92.264236 380.669373,87.874069 
	C382.413391,83.989838 385.471313,82.050583 389.765442,82.626228 
	C394.954498,83.321846 397.692902,87.145737 397.064667,92.521584 
	C396.446869,97.808273 392.784821,100.216728 385.809448,99.542175 
z"/>
<path fill="#B78259" opacity="1.000000" stroke="none" 
	d="
M456.619202,103.632660 
	C456.814728,112.291237 456.564911,120.784241 456.143280,129.662994 
	C453.351440,124.912277 450.957275,119.641533 448.016510,114.695808 
	C446.538452,112.209991 443.915405,110.432404 442.108612,108.103043 
	C441.207855,106.941803 440.978668,105.259644 440.318176,103.467072 
	C446.308563,103.467072 451.241211,103.467072 456.619202,103.632660 
z"/>
<path fill="#D1986C" opacity="1.000000" stroke="none" 
	d="
M77.028061,170.886780 
	C74.596321,171.528183 72.164574,172.169571 69.363113,172.410583 
	C68.630844,169.657227 68.268295,167.304230 67.926056,164.489929 
	C67.961052,159.675751 67.975746,155.322891 67.990440,150.970016 
	C70.749306,149.331528 73.508171,147.693024 76.622643,146.447281 
	C76.994850,154.855621 77.011452,162.871201 77.028061,170.886780 
z"/>
<path fill="#9C6943" opacity="1.000000" stroke="none" 
	d="
M513.612610,103.970917 
	C514.358582,106.924583 514.720154,109.857521 515.456787,112.886993 
	C515.372192,116.990562 514.221741,121.009850 509.673981,121.419182 
	C506.926239,121.666504 502.753784,120.753685 501.505310,118.858002 
	C500.259796,116.966896 500.810486,112.180832 502.453552,110.480217 
	C505.275177,107.559731 509.558441,106.051353 513.612610,103.970917 
z"/>
<path fill="#8C5934" opacity="1.000000" stroke="none" 
	d="
M226.000168,151.986099 
	C224.697662,151.869324 223.269714,152.056793 222.115341,151.580780 
	C218.071991,149.913467 214.203568,147.477219 209.941467,151.259186 
	C209.299667,151.828705 207.717529,151.338501 206.032059,151.338501 
	C205.626968,146.155319 205.235428,141.145370 204.837845,136.058167 
	C209.280869,135.063644 212.017105,135.652664 213.900009,140.042007 
	C215.856735,144.603439 219.716797,147.443634 225.589905,147.483917 
	C225.999588,149.307892 225.999878,150.647003 226.000168,151.986099 
z"/>
<path fill="#9B6640" opacity="1.000000" stroke="none" 
	d="
M243.307678,148.720673 
	C243.012665,139.055801 243.039627,129.319611 243.110138,119.086067 
	C253.769806,127.113731 253.965927,139.498871 243.307678,148.720673 
z"/>
<path fill="#9B6640" opacity="1.000000" stroke="none" 
	d="
M82.076996,145.030121 
	C83.708130,141.835785 85.232414,138.580124 87.015831,135.473221 
	C87.897865,133.936615 89.257423,132.674149 90.857910,131.507477 
	C91.543793,135.821365 91.593399,139.937134 92.085442,143.999313 
	C92.296875,145.744797 93.426651,147.379028 94.139191,149.063812 
	C89.824615,150.893982 88.855713,155.307663 86.341507,158.528748 
	C85.417046,154.555771 84.799187,150.818878 84.053604,146.804565 
	C83.309586,146.028122 82.693291,145.529129 82.076996,145.030121 
z"/>
<path fill="#CC9468" opacity="1.000000" stroke="none" 
	d="
M128.379608,121.188278 
	C128.068863,114.478371 128.122269,107.548973 127.955833,100.624863 
	C127.885399,97.694717 127.352753,94.775688 127.016251,91.429291 
	C128.391342,89.634460 129.780380,88.261948 131.665665,87.170105 
	C132.441116,89.225746 132.930893,90.997124 132.961044,92.776299 
	C133.062286,98.751877 132.867981,104.735199 133.093887,110.703941 
	C133.149246,112.166641 134.373703,113.585075 135.060684,115.023857 
	C132.925415,117.006210 130.790131,118.988571 128.379608,121.188278 
z"/>
<path fill="#BF885E" opacity="1.000000" stroke="none" 
	d="
M135.346451,114.896843 
	C134.373703,113.585075 133.149246,112.166641 133.093887,110.703941 
	C132.867981,104.735199 133.062286,98.751877 132.961044,92.776299 
	C132.930893,90.997124 132.441116,89.225746 131.969788,87.039825 
	C133.112778,85.388000 134.447922,84.147141 136.468002,83.062149 
	C137.435303,87.957962 137.683884,92.700211 138.009644,97.437164 
	C138.324890,102.020821 138.719589,106.598999 139.079391,111.179581 
	C137.930328,112.376335 136.781265,113.573082 135.346451,114.896843 
z"/>
<path fill="#AF7950" opacity="1.000000" stroke="none" 
	d="
M148.185593,101.630508 
	C146.678284,103.384987 145.170975,105.139465 143.201355,106.641029 
	C142.492691,99.113472 142.308090,91.835838 141.957825,84.566193 
	C141.866959,82.680618 141.257629,80.820023 140.886444,78.947952 
	C142.398102,77.722717 143.909760,76.497482 145.908020,75.578545 
	C146.595978,79.618980 146.746750,83.356720 147.011307,87.086372 
	C147.355438,91.937775 147.789978,96.782768 148.185593,101.630508 
z"/>
<path fill="#9C6943" opacity="1.000000" stroke="none" 
	d="
M233.142212,96.389282 
	C233.293915,94.979843 233.612228,93.857239 233.958984,92.383286 
	C237.625504,91.714142 241.263565,91.396339 245.368423,91.037758 
	C245.636551,96.027817 245.889664,100.738403 246.148392,105.553329 
	C242.305298,106.500725 239.926163,105.427139 238.075043,102.245270 
	C236.866409,100.167755 234.923065,98.517670 233.142212,96.389282 
z"/>
<path fill="#A26D45" opacity="1.000000" stroke="none" 
	d="
M148.458008,101.410172 
	C147.789978,96.782768 147.355438,91.937775 147.011307,87.086372 
	C146.746750,83.356720 146.595978,79.618980 146.227600,75.512711 
	C147.840088,73.928619 149.619553,72.716667 151.704163,71.856163 
	C152.005798,74.358093 151.900940,76.514122 152.018234,78.658005 
	C152.340378,84.546478 152.755753,90.429855 153.134232,96.315247 
	C151.666290,97.940102 150.198349,99.564957 148.458008,101.410172 
z"/>
<path fill="#B67F56" opacity="1.000000" stroke="none" 
	d="
M81.757538,144.962250 
	C82.693291,145.529129 83.309586,146.028122 83.673637,146.952759 
	C83.289818,153.276047 83.158249,159.173660 83.026680,165.071289 
	C81.610893,167.351532 82.043556,171.261459 77.401878,170.956970 
	C77.011452,162.871201 76.994850,154.855621 76.962540,146.363235 
	C78.443916,145.555740 79.940994,145.225067 81.757538,144.962250 
z"/>
<path fill="#D39F76" opacity="1.000000" stroke="none" 
	d="
M105.767883,168.943542 
	C105.681992,171.205917 105.245735,173.521454 105.579277,175.720215 
	C106.410042,181.196762 105.218559,184.565765 100.174736,186.628326 
	C96.252602,188.232208 91.934227,188.867157 87.388321,189.533478 
	C86.992508,188.443146 87.000328,187.752060 87.008156,187.060989 
	C90.860153,185.821304 94.763420,184.718307 98.548012,183.298889 
	C101.606827,182.151703 102.311127,179.745163 101.925735,176.528915 
	C101.608788,173.883865 102.132713,171.138062 102.842941,168.301971 
	C104.190582,168.425858 104.979225,168.684708 105.767883,168.943542 
z"/>
<path fill="#D1986C" opacity="1.000000" stroke="none" 
	d="
M118.751389,99.298248 
	C119.351395,108.579361 119.656158,117.989548 120.033340,127.836891 
	C119.076736,129.188248 118.047707,130.102448 116.360123,130.847198 
	C115.468849,123.855904 115.314590,117.029900 114.951233,110.215027 
	C114.853752,108.386742 114.119171,106.592422 113.677071,104.782509 
	C115.270096,102.997452 116.863113,101.212387 118.751389,99.298248 
z"/>
<path fill="#B67F56" opacity="1.000000" stroke="none" 
	d="
M140.572449,79.046616 
	C141.257629,80.820023 141.866959,82.680618 141.957825,84.566193 
	C142.308090,91.835838 142.492691,99.113472 142.908188,106.785904 
	C141.935913,108.420677 140.794510,109.657677 139.366241,111.037132 
	C138.719589,106.598999 138.324890,102.020821 138.009644,97.437164 
	C137.683884,92.700211 137.435303,87.957962 136.757339,82.963699 
	C137.660629,81.521339 138.959549,80.333305 140.572449,79.046616 
z"/>
<path fill="#C58D62" opacity="1.000000" stroke="none" 
	d="
M113.423248,104.932053 
	C114.119171,106.592422 114.853752,108.386742 114.951233,110.215027 
	C115.314590,117.029900 115.468849,123.855904 116.074287,130.937057 
	C115.514771,132.073486 114.582550,132.950592 113.051567,133.676575 
	C111.969048,130.944595 111.186890,128.378052 111.062210,125.779961 
	C110.782997,119.961479 110.830956,114.127304 110.745667,108.299515 
	C111.553589,107.226875 112.361519,106.154243 113.423248,104.932053 
z"/>
<path fill="#9B6640" opacity="1.000000" stroke="none" 
	d="
M153.426147,96.142258 
	C152.755753,90.429855 152.340378,84.546478 152.018234,78.658005 
	C151.900940,76.514122 152.005798,74.358093 152.012207,71.760323 
	C153.096771,70.868736 154.178467,70.424423 155.680359,70.327293 
	C156.510773,71.199623 156.920975,71.724770 157.156448,72.684517 
	C155.937469,78.838394 154.238205,84.598595 158.037201,90.015335 
	C156.597488,91.999977 155.157776,93.984619 153.426147,96.142258 
z"/>
<path fill="#BF885E" opacity="1.000000" stroke="none" 
	d="
M110.416397,108.394943 
	C110.830956,114.127304 110.782997,119.961479 111.062210,125.779961 
	C111.186890,128.378052 111.969048,130.944595 112.748108,133.775284 
	C111.585922,135.324158 110.128433,136.623199 108.344360,137.599274 
	C107.683701,128.869141 107.349617,120.461983 107.015541,112.054825 
	C108.039398,110.866676 109.063255,109.678528 110.416397,108.394943 
z"/>
<path fill="#AF7950" opacity="1.000000" stroke="none" 
	d="
M104.119080,141.297592 
	C103.240021,142.074020 102.360970,142.850464 101.032532,143.345840 
	C100.389374,137.821609 100.327217,132.568405 99.929131,127.340775 
	C99.793106,125.554619 98.813972,123.832672 98.220047,122.081375 
	C99.581474,120.395020 100.942902,118.708664 102.667374,117.293579 
	C103.393311,125.475761 103.756195,133.386673 104.119080,141.297592 
z"/>
<path fill="#B67F56" opacity="1.000000" stroke="none" 
	d="
M104.418335,141.179749 
	C103.756195,133.386673 103.393311,125.475761 102.956604,117.127716 
	C104.066719,115.236130 105.250656,113.781677 106.725067,112.191025 
	C107.349617,120.461983 107.683701,128.869141 108.028931,137.696442 
	C106.932587,139.098358 105.825089,140.080139 104.418335,141.179749 
z"/>
<path fill="#925F3A" opacity="1.000000" stroke="none" 
	d="
M158.309540,89.823853 
	C154.238205,84.598595 155.937469,78.838394 157.387451,72.963539 
	C160.163803,74.925705 162.534409,77.043449 164.905029,79.161194 
	C162.797318,82.651588 160.689606,86.141983 158.309540,89.823853 
z"/>
<path fill="#A57149" opacity="1.000000" stroke="none" 
	d="
M97.952682,122.266457 
	C98.813972,123.832672 99.793106,125.554619 99.929131,127.340775 
	C100.327217,132.568405 100.389374,137.821609 100.751007,143.431671 
	C99.805176,144.765656 98.691498,145.732758 97.218933,146.376450 
	C96.573723,141.176727 96.410339,136.288193 95.928062,131.431335 
	C95.778320,129.923218 94.763618,128.500977 94.144913,127.039429 
	C95.325058,125.510132 96.505188,123.980835 97.952682,122.266457 
z"/>
<path fill="#9C6943" opacity="1.000000" stroke="none" 
	d="
M93.872986,127.207336 
	C94.763618,128.500977 95.778320,129.923218 95.928062,131.431335 
	C96.410339,136.288193 96.573723,141.176727 96.911400,146.458801 
	C96.220375,147.551682 95.478012,148.238785 94.437424,148.994843 
	C93.426651,147.379028 92.296875,145.744797 92.085442,143.999313 
	C91.593399,139.937134 91.543793,135.821365 91.147949,131.340973 
	C91.854355,129.761505 92.727715,128.568375 93.872986,127.207336 
z"/>
<path fill="#C38B60" opacity="1.000000" stroke="none" 
	d="
M156.726700,69.041687 
	C158.194168,67.720947 159.701340,65.296669 161.119431,65.347702 
	C163.066208,65.417763 165.143951,67.137917 166.786865,68.581902 
	C167.967041,69.619202 168.527756,71.361275 169.404343,72.856354 
	C168.291656,74.175354 167.026627,75.674957 165.241119,76.872772 
	C162.055984,74.061211 159.391342,71.551453 156.726700,69.041687 
z"/>
<path fill="#B78259" opacity="1.000000" stroke="none" 
	d="
M67.617767,150.989075 
	C67.975746,155.322891 67.961052,159.675751 67.607880,164.549957 
	C66.187416,165.713547 65.105423,166.355835 63.752136,166.774643 
	C63.006649,165.043610 62.532448,163.536072 62.058250,162.028519 
	C62.700390,157.843536 60.776478,152.450821 67.617767,150.989075 
z"/>
<path fill="#A26D45" opacity="1.000000" stroke="none" 
	d="
M61.854317,162.309875 
	C62.532448,163.536072 63.006649,165.043610 63.592918,167.112442 
	C63.115910,170.029800 62.526825,172.385880 61.937740,174.741959 
	C59.926094,175.604370 57.914444,176.466782 54.940971,177.741531 
	C57.351139,172.299225 59.500763,167.445236 61.854317,162.309875 
z"/>
<path fill="#9C6943" opacity="1.000000" stroke="none" 
	d="
M83.276321,164.842255 
	C83.158249,159.173660 83.289818,153.276047 83.801353,147.230209 
	C84.799187,150.818878 85.417046,154.555771 86.058617,158.753815 
	C85.230202,161.014389 84.378075,162.813812 83.276321,164.842255 
z"/>
<path fill="#B78259" opacity="1.000000" stroke="none" 
	d="
M86.561050,187.027130 
	C87.000328,187.752060 86.992508,188.443146 86.967010,189.479187 
	C79.755638,188.864044 72.561935,187.903915 65.368240,186.943802 
	C65.444313,186.329819 65.520386,185.715836 65.596466,185.101868 
	C72.435631,185.732330 79.274788,186.362793 86.561050,187.027130 
z"/>
<path fill="#C58D62" opacity="1.000000" stroke="none" 
	d="
M62.311417,174.838623 
	C62.526825,172.385880 63.115910,170.029800 63.864212,167.335922 
	C65.105423,166.355835 66.187416,165.713547 67.587578,165.011261 
	C68.268295,167.304230 68.630844,169.657227 68.987938,172.419037 
	C66.883354,173.530334 64.784218,174.232819 62.311417,174.838623 
z"/>
<path fill="#CC9468" opacity="1.000000" stroke="none" 
	d="
M106.034912,168.698578 
	C104.979225,168.684708 104.190582,168.425858 103.107925,168.045059 
	C106.446480,163.256638 111.569572,161.337784 114.909294,163.696259 
	C111.958046,165.327438 109.129997,166.890518 106.034912,168.698578 
z"/>
<path fill="#8C5A35" opacity="1.000000" stroke="none" 
	d="
M226.322098,152.205536 
	C225.999878,150.647003 225.999588,149.307892 225.998657,147.567245 
	C227.421082,146.841034 228.844177,146.516373 230.609100,146.040344 
	C231.299911,147.937378 231.648911,149.985794 231.996124,152.434814 
	C230.210907,152.698578 228.427475,152.561768 226.322098,152.205536 
z"/>
<path fill="#EEE3DA" opacity="1.000000" stroke="none" 
	d="
M156.541595,69.190414 
	C159.391342,71.551453 162.055984,74.061211 164.856049,76.887413 
	C164.982269,77.639084 164.973083,78.074326 164.934464,78.835373 
	C162.534409,77.043449 160.163803,74.925705 157.562195,72.528946 
	C156.920975,71.724770 156.510773,71.199623 156.030273,70.431747 
	C155.999893,69.862671 156.132065,69.579376 156.541595,69.190414 
z"/>
<path fill="#FBF9F7" opacity="1.000000" stroke="none" 
	d="
M282.747040,140.901398 
	C280.552887,142.459900 278.441620,143.676071 276.330383,144.892242 
	C275.207642,142.542877 273.270355,140.243988 273.121094,137.834320 
	C272.735718,131.613068 276.407379,127.176888 282.702942,125.196350 
	C283.580719,126.453987 284.750183,127.975174 284.635010,129.391907 
	C284.330414,133.138458 283.469482,136.839767 282.747040,140.901398 
z"/>
<path fill="#FDFCFB" opacity="1.000000" stroke="none" 
	d="
M515.294556,134.036377 
	C518.824280,127.131317 518.824280,127.131317 526.983459,124.814453 
	C526.057739,130.623749 525.659546,135.949509 524.241821,140.988434 
	C523.352539,144.149216 520.646118,146.191193 516.513489,144.049713 
	C515.871521,140.770660 515.573669,137.602798 515.294556,134.036377 
z"/>
</svg>